PathFileType	4	(X/Y/Z)	9_coords_data.trc
DataRate	CameraRate	NumFrames	NumMarkers	Units	OrigDataRate	OrigDataStartFrame	OrigNumFrames
30.0	30.0	6	21	m	30.0	1	59
Frame#	Time	THUMB_TIP	THUMB_IP	THUMB_MCP	THUMB_CMC	INDEX_TIP	INDEX_DIP	INDEX_PIP	INDEX_MCP	MIDDLE_TIP	MIDDLE_DIP	MIDDLE_PIP	MIDDLE_MCP	RING_TIP	RING_DIP	RING_PIP	RING_MCP	PINKY_TIP	PINKY_DIP	PINKY_PIP	PINKY_MCP	WRIST
X1	Y1	Z1	X2	Y2	Z2	X3	Y3	Z3	X4	Y4	Z4	X5	Y5	Z5	X6	Y6	Z6	X7	Y7	Z7	X8	Y8	Z8	X9	Y9	Z9	X10	Y10	Z10	X11	Y11	Z11	X12	Y12	Z12	X13	Y13	Z13	X14	Y14	Z14	X15	Y15	Z15	X16	Y16	Z16	X17	Y17	Z17	X18	Y18	Z18	X19	Y19	Z19	X20	Y20	Z20	X21	Y21	Z21
0	0.0	-0.005959489822387695	-0.05088579940795898	1.0016300048828124	-0.029651199340820313	-0.04370190048217774	1.0060399780273437	-0.04543030166625977	-0.02544470024108887	1.009739990234375	-0.047587200164794924	-0.002963629961013794	1.0197899780273438	-0.005112070083618164	-0.07368049621582032	0.9098419799804688	-0.011526000022888184	-0.058341400146484375	0.9251749877929687	-0.020067899703979493	-0.04234640121459961	0.9395759887695313	-0.031226900100708006	-0.010809200286865234	0.9630260009765625	-0.01710149955749512	-0.03566429901123047	1.0016400146484374	6.224429979920301e-05	-0.04388579940795898	0.9858740234375	0.008800169944763184	-0.037052600860595704	0.9637760009765625	-0.010879199981689453	-0.000852796018123626	0.961718017578125	-0.006746119976043701	-0.02774839973449707	1.0100499877929687	0.013174599647521972	-0.03097669982910156	0.9938909912109375	0.027135900497436524	-0.018465299606323243	0.9771290283203125	0.0027573599815368653	0.013706999778747559	0.9809550170898438	0.07032779693603515	-0.0038663899898529054	0.9800260009765625	0.05476330184936523	0.004658090114593506	0.9878690185546875	0.039506500244140624	0.012348199844360351	0.9942360229492188	0.012604599952697753	0.01789080047607422	1.0003900146484375	-0.0577593002319336	0.04093199920654297	1.0326300048828125
1	0.03333333333333333	-0.005957880020141602	-0.04797190093994141	1.0031900024414062	-0.02902039909362793	-0.04370309829711914	1.0071300048828125	-0.04576369857788086	-0.025233400344848632	1.0096799926757813	-0.049921699523925785	0.002512239933013916	1.0183300170898437	-0.005980490207672119	-0.07202749633789063	0.90972802734375	-0.012690400123596192	-0.05816640090942383	0.9255609741210937	-0.020397699356079102	-0.041733299255371094	0.9396619873046875	-0.03263119888305664	-0.011392499923706055	0.9643660278320313	-0.013895199775695801	-0.03429330062866211	1.0031099853515626	-0.0017350800037384032	-0.04148089981079101	0.9876950073242188	0.007524330139160157	-0.03542350006103516	0.9630490112304687	-0.012264900207519532	0.001692749977111816	0.965406005859375	-0.006192160129547119	-0.027425899505615234	1.0088200073242188	0.011842900276184083	-0.029805000305175782	0.9958610229492187	0.025255699157714844	-0.01800659942626953	0.9771409912109374	0.0022287399768829343	0.0139375	0.9805770263671875	0.06953240203857422	-0.003269269943237304	0.9807730102539063	0.05427870178222656	0.005449840068817139	0.9878579711914063	0.03830759811401367	0.013000699996948242	0.9935960083007812	0.01025119972229004	0.01885190010070801	1.0021699829101562	-0.058262199401855466	0.042585800170898434	1.03518994140625
2	0.06666666666666667	-0.006552480220794678	-0.04735250091552735	1.0032999877929687	-0.02980620002746582	-0.04301060104370117	1.0073900146484376	-0.046470001220703126	-0.02461989974975586	1.0097999877929686	-0.050654499053955075	0.0027207000255584706	1.0180900268554687	-0.006714210033416748	-0.07130879974365234	0.9098099975585937	-0.013433099746704102	-0.057467498779296876	0.925676025390625	-0.021104700088500978	-0.04105649948120117	0.9398610229492188	-0.033424701690673825	-0.010801799774169922	0.9645889892578124	-0.01520479965209961	-0.03311130142211914	1.0015999755859375	-0.002286540031433105	-0.04094490051269531	0.9876799926757812	0.006849140167236328	-0.03460609817504883	0.9630640258789063	-0.013097299575805663	0.002338570117950439	0.9656060180664062	-0.006894430160522461	-0.026757699966430664	1.0089199829101563	0.011439200401306152	-0.02921540069580078	0.995656005859375	0.024500900268554688	-0.017294300079345702	0.9774290161132813	0.001318570017814636	0.01452530002593994	0.98043701171875	0.06871900177001954	-0.0024931199550628663	0.9809450073242187	0.053375801086425784	0.006233570098876953	0.9880679931640625	0.03737950134277344	0.013806699752807617	0.9937210083007812	0.009496190071105958	0.0196018009185791	1.0022000122070311	-0.059436599731445314	0.043278301239013675	1.0352900390625
3	0.1	-0.007682260036468506	-0.04711429977416992	1.00302001953125	-0.03052750015258789	-0.042843799591064456	1.0070999755859376	-0.04728919982910156	-0.025082300186157227	1.0091699829101564	-0.0516781005859375	0.0036561200618743894	1.018760009765625	-0.007722000122070313	-0.07084960174560546	0.9096220092773437	-0.01443239974975586	-0.057045398712158205	0.9255089721679688	-0.02216749954223633	-0.04067219924926758	0.9397429809570312	-0.03432569885253906	-0.010482600212097168	0.9645170288085938	-0.015627599716186522	-0.033145999908447264	1.0026400146484375	-0.002921999931335449	-0.04081169891357422	0.9873590087890625	0.005746270179748535	-0.03441790008544922	0.9629439697265625	-0.01401550006866455	0.002727449893951416	0.9654329833984375	-0.007351140022277832	-0.026718299865722658	1.0089600219726562	0.010596799850463866	-0.028958999633789062	0.9954650268554688	0.023635900497436524	-0.01694070053100586	0.9771480102539063	0.00042723500728607104	0.014923999786376953	0.9804609985351562	0.06780180358886718	-0.00212923002243042	0.9806190185546875	0.05248479843139649	0.006539979934692383	0.98793701171875	0.0364739990234375	0.014128299713134765	0.9936270141601562	0.008455570220947266	0.019703300476074218	1.0020700073242188	-0.060442401885986326	0.0433922004699707	1.0348599853515625
4	0.13333333333333333	-0.008419989585876465	-0.047125499725341795	1.0028599853515625	-0.03145730018615723	-0.04281060028076172	1.0070599975585937	-0.048335399627685544	-0.02436590003967285	1.0093400268554686	-0.05199959945678711	0.0026856200695037843	1.017969970703125	-0.008772760391235352	-0.07096309661865234	0.909594970703125	-0.015440600395202637	-0.05713719940185547	0.9254039916992187	-0.023162500381469726	-0.040722599029541014	0.939583984375	-0.03520389938354492	-0.010580300331115722	0.96431298828125	-0.016782800674438478	-0.03289630126953125	1.002510009765625	-0.003701580047607422	-0.04092440032958984	0.9868779907226563	0.004813729763031006	-0.034396400451660154	0.9628060302734375	-0.015014599800109864	0.0027059900760650632	0.965468017578125	-0.008224550247192383	-0.026958799362182616	1.0086699829101562	0.009473170280456543	-0.029048500061035157	0.9954119873046875	0.02266189956665039	-0.01692740058898926	0.9769320068359375	-0.000548623025417327	0.014751500129699707	0.980176025390625	0.06689759826660156	-0.002161350011825561	0.980364990234375	0.051650501251220705	0.006531949996948242	0.9874409790039063	0.035652999877929685	0.014109399795532227	0.9932080078125	0.007779570102691651	0.019507299423217772	1.002030029296875	-0.06065390014648438	0.04301850128173828	1.03502001953125
5	0.16666666666666666	-0.009124070167541505	-0.0474474983215332	1.002530029296875	-0.03217160034179688	-0.04303879928588867	1.0068499755859375	-0.048437400817871096	-0.0244768009185791	1.0095499877929688	-0.053007198333740235	0.0029797298908233643	1.0186300048828125	-0.009508509635925293	-0.07118049621582032	0.9095260009765626	-0.01621470069885254	-0.057309600830078126	0.92531201171875	-0.023912200927734373	-0.0409011001586914	0.9394869995117188	-0.036039100646972654	-0.01068869972229004	0.96435498046875	-0.01730699920654297	-0.03354619979858398	1.0021099853515625	-0.004606130123138427	-0.04099969863891602	0.9868690185546874	0.004076910018920898	-0.0346343002319336	0.9625280151367187	-0.015886400222778322	0.002520669937133789	0.9653380126953125	-0.009379940032958984	-0.027448400497436524	1.008760009765625	0.00886886978149414	-0.029173900604248047	0.9947169799804687	0.021992799758911132	-0.01696419906616211	0.976552001953125	-0.0013959100246429441	0.014782400131225585	0.9799669799804688	0.066189697265625	-0.002357719898223877	0.980041015625	0.05092440032958984	0.006347430229187012	0.9873679809570313	0.03492530059814453	0.01396150016784668	0.99310498046875	0.006959710121154785	0.01963909912109375	1.0016199951171876	-0.061342998504638674	0.04302669906616211	1.035510009765625
